# xmcd CD database file
#
# Track frame offsets:
#	150
#	18900
#	37912
#	58392
#	76989
#	96722
#	114958
#	132219
#	150900
#	167361
#	185325
#	204066
#	221249
#	239231
#
# Disc length: 3427 seconds
#
# Revision: 1
# Processed by: cddbd v1.5.2PL0 Copyright (c) Steve Scherf et al.
# Submitted via: CDex 1.51
#
DISCID=b60d610e
DTITLE=Belo - Valeu Esperar
DYEAR=2002
DGENRE=Samba
TTITLE0=Amante Amor Amiga
TTITLE1=Abrigo
TTITLE2=Valeu Esperar
TTITLE3=Figurino
TTITLE4=Tarde Demais
TTITLE5=Vício
TTITLE6=Segredo de Amor
TTITLE7=Do Meu Jeito
TTITLE8=À Meia-luz
TTITLE9=Supera
TTITLE10=Todo Cuidado É Pouco
TTITLE11=Romance Rosa (Bachata Rosa)
TTITLE12=Fim da Tristeza
TTITLE13=Viver Por Ela
EXTD=By DJ MP2 YEAR: 2002
EXTT0=
EXTT1=
EXTT2=
EXTT3=
EXTT4=
EXTT5=
EXTT6=
EXTT7=
EXTT8=
EXTT9=
EXTT10=
EXTT11=
EXTT12=
EXTT13=
PLAYORDER=
